# Blender v2.78 (sub 0) OBJ File: 'warp_pad.blend'
# www.blender.org
mtllib warp_pad.mtl
o Object.1
v -0.450352 0.590551 1.450352
v -0.548664 0.293945 1.548664
v -0.172000 0.590551 1.663935
v -0.663935 0.590551 1.172000
v -0.241515 0.293945 1.784344
v -0.798203 0.590551 0.847852
v -0.798203 0.590551 0.152148
v -0.843997 0.590551 0.500000
v -0.663935 0.590552 -0.172000
v -0.450352 0.590552 -0.450352
v -0.172000 0.590552 -0.663935
v 0.152148 0.590551 1.798203
v 0.152148 0.590552 -0.798203
v 0.500000 0.590551 1.843997
v 0.500000 0.590552 -0.843997
v 0.847852 0.590551 1.798203
v 0.847852 0.590552 -0.798203
v 1.172000 0.590552 -0.663935
v 1.172000 0.590551 1.663935
v 1.450352 0.590552 -0.450352
v 1.450352 0.590551 1.450352
v 1.663935 0.590551 1.172000
v 1.663935 0.590552 -0.172000
v 1.798203 0.590551 0.152148
v 1.798203 0.590551 0.847852
v 1.843997 0.590551 0.500000
v -0.784344 0.293945 1.241515
v 0.116164 0.293945 1.932500
v -0.548664 -0.002662 1.548664
v -0.241515 -0.002662 1.784344
v 1.548664 0.293945 -0.548664
v 0.883836 0.293945 -0.932500
v 0.116164 0.293945 -0.932500
v -0.548664 0.293945 -0.548664
v -0.932500 0.293945 0.116164
v -0.932500 0.293945 0.883836
v 0.883836 0.293945 1.932500
v 1.548664 0.293945 1.548664
v 1.932500 0.293945 0.883836
v 1.932500 0.293945 0.116164
v -0.784344 -0.002662 1.241515
v 0.116164 -0.002662 1.932500
v -0.932500 -0.002662 0.116164
v -0.932500 -0.002662 0.883836
v -0.983033 -0.002662 0.500000
v -0.784344 -0.002662 -0.241515
v -0.548664 -0.002662 -0.548664
v -0.241515 -0.002662 -0.784344
v 0.116164 -0.002662 -0.932500
v 0.500000 -0.002662 1.983033
v 0.500000 -0.002662 -0.983033
v 0.883836 -0.002662 1.932500
v 0.883836 -0.002662 -0.932500
v 1.241515 -0.002662 1.784344
v 1.241515 -0.002662 -0.784344
v 1.548664 -0.002662 1.548664
v 1.548664 -0.002662 -0.548664
v 0.500000 -0.002662 0.500000
v 1.784344 -0.002662 1.241515
v 1.784344 -0.002662 -0.241515
v 1.932500 -0.002662 0.883836
v 1.932500 -0.002662 0.116164
v 1.983033 -0.002662 0.500000
v 1.241515 0.293945 -0.784344
v 0.500000 0.293945 -0.983033
v -0.241515 0.293945 -0.784344
v -0.784344 0.293945 -0.241515
v -0.983033 0.293945 0.500000
v 0.500000 0.293945 1.983033
v 1.241515 0.293945 1.784344
v 1.784344 0.293945 1.241515
v 1.983033 0.293945 0.500000
v 1.784344 0.293945 -0.241515
v 0.500000 0.590551 0.500000
vt 0.3165 0.0911
vt 0.3551 0.0754
vt 0.3666 0.1087
vt 0.3317 0.1230
vt 0.3137 0.8685
vt 0.4570 0.8496
vt 0.3423 0.9376
vt 0.3234 0.9049
vt 0.5124 0.7160
vt 0.4382 0.7062
vt 0.4759 0.7062
vt 0.3234 0.7943
vt 0.3137 0.8307
vt 0.4017 0.9832
vt 0.3690 0.9643
vt 0.3690 0.7349
vt 0.3423 0.7616
vt 0.4017 0.7160
vt 0.5718 0.7616
vt 0.5451 0.7349
vt 0.6004 0.8307
vt 0.5906 0.7943
vt 0.5906 0.9049
vt 0.6004 0.8685
vt 0.5451 0.9643
vt 0.5718 0.9376
vt 0.4759 0.9930
vt 0.5124 0.9832
vt 0.4382 0.9930
vt 0.2800 0.1110
vt 0.2985 0.1410
vt 0.3952 0.0640
vt 0.4029 0.0984
vt 0.2917 0.6439
vt 0.2917 0.6119
vt 0.3334 0.6119
vt 0.3334 0.6439
vt 0.7692 0.1933
vt 0.7937 0.2270
vt 0.7641 0.2461
vt 0.7419 0.2156
vt 0.8143 0.2632
vt 0.7827 0.2789
vt 0.1469 0.3495
vt 0.1126 0.3411
vt 0.1248 0.3012
vt 0.1579 0.3134
vt 0.8308 0.3015
vt 0.7977 0.3136
vt 0.8429 0.3413
vt 0.8087 0.3497
vt 0.1413 0.2630
vt 0.1728 0.2787
vt 0.1619 0.2268
vt 0.1915 0.2459
vt 0.1864 0.1931
vt 0.2137 0.2154
vt 0.2145 0.1623
vt 0.2392 0.1875
vt 0.2458 0.1349
vt 0.2675 0.1626
vt 0.4363 0.0571
vt 0.4402 0.0921
vt 0.4779 0.0548
vt 0.4778 0.0901
vt 0.5195 0.0571
vt 0.5155 0.0922
vt 0.5605 0.0640
vt 0.5528 0.0984
vt 0.6006 0.0755
vt 0.5891 0.1088
vt 0.6240 0.1231
vt 0.6391 0.0912
vt 0.6757 0.1112
vt 0.6572 0.1411
vt 0.7099 0.1350
vt 0.6881 0.1628
vt 0.7412 0.1625
vt 0.7165 0.1877
vt 0.8333 0.6119
vt 0.8333 0.6439
vt 0.7916 0.6439
vt 0.7916 0.6119
vt 0.3750 0.6119
vt 0.3750 0.6439
vt 0.4167 0.6439
vt 0.4167 0.6119
vt 0.4051 0.2170
vt 0.4453 0.2062
vt 0.4661 0.3644
vt 0.3690 0.2378
vt 0.4870 0.2062
vt 0.5272 0.2170
vt 0.2501 0.6439
vt 0.2501 0.6119
vt 0.4583 0.6439
vt 0.4583 0.6119
vt 0.5633 0.2378
vt 0.5927 0.2673
vt 0.6243 0.3436
vt 0.6243 0.3853
vt 0.6136 0.4255
vt 0.8749 0.6119
vt 0.8749 0.6439
vt 0.7499 0.6439
vt 0.7499 0.6119
vt 0.7083 0.6439
vt 0.7083 0.6119
vt 0.6666 0.6439
vt 0.6666 0.6119
vt 0.6250 0.6439
vt 0.5833 0.6439
vt 0.5833 0.6119
vt 0.6250 0.6119
vt 0.5417 0.6439
vt 0.5417 0.6119
vt 0.5000 0.6439
vt 0.5000 0.6119
vt 0.2084 0.6439
vt 0.2084 0.6119
vt 0.1667 0.6439
vt 0.1668 0.6119
vt 0.4051 0.5119
vt 0.4870 0.5226
vt 0.4453 0.5226
vt 0.1251 0.6119
vt 0.1251 0.6439
vt 0.0834 0.6439
vt 0.0834 0.6119
vt 0.0418 0.6439
vt 0.0418 0.6119
vt 0.3395 0.4616
vt 0.3690 0.4910
vt 0.0001 0.6439
vt 0.0001 0.6119
vt 0.3079 0.3853
vt 0.3187 0.4255
vt 0.9999 0.6439
vt 0.9582 0.6439
vt 0.9582 0.6119
vt 0.9999 0.6119
vt 0.3187 0.3034
vt 0.3079 0.3436
vt 0.9166 0.6439
vt 0.9166 0.6119
vt 0.3395 0.2673
vt 0.5633 0.4910
vt 0.5272 0.5119
vt 0.6136 0.3034
vt 0.5927 0.4616
vn -0.7195 0.4214 0.5521
vn 0.0000 1.0000 0.0000
vn -0.8378 0.4215 0.3470
vn -0.5521 0.4214 0.7195
vn -0.9239 0.0000 0.3827
vn 0.7195 0.4215 -0.5521
vn 0.5521 0.4214 -0.7195
vn -0.1184 0.4215 -0.8991
vn 0.3470 0.4215 -0.8378
vn 0.1184 0.4215 -0.8991
vn -0.3470 0.4215 -0.8378
vn -0.5521 0.4215 -0.7195
vn -0.7195 0.4215 -0.5521
vn -0.8378 0.4215 -0.3470
vn -0.8991 0.4215 -0.1184
vn -0.8991 0.4215 0.1184
vn -0.3470 0.4215 0.8378
vn -0.1184 0.4215 0.8991
vn 0.1184 0.4215 0.8991
vn 0.3470 0.4215 0.8378
vn 0.5521 0.4215 0.7195
vn 0.8378 0.4215 0.3470
vn 0.8991 0.4215 0.1184
vn 0.8991 0.4215 -0.1184
vn 0.9239 -0.0000 -0.3827
vn -0.7934 0.0000 0.6088
vn -0.6088 0.0000 0.7934
vn 0.8378 0.4215 -0.3470
vn -0.0000 -1.0000 -0.0000
vn 0.7195 0.4214 0.5521
vn -0.9914 0.0000 0.1305
vn -0.3827 0.0000 0.9239
vn 0.7934 -0.0000 -0.6088
vn 0.9914 -0.0000 -0.1305
vn 0.9914 0.0000 0.1305
vn 0.9239 0.0000 0.3827
vn 0.6088 0.0000 0.7934
vn 0.7934 0.0000 0.6088
vn 0.3827 0.0000 0.9239
vn 0.1305 0.0000 0.9914
vn -0.1305 0.0000 0.9914
vn -0.9914 -0.0000 -0.1305
vn -0.9239 -0.0000 -0.3827
vn -0.7934 0.0000 -0.6088
vn -0.6088 0.0000 -0.7934
vn -0.3827 0.0000 -0.9239
vn -0.1305 0.0000 -0.9914
vn 0.1305 0.0000 -0.9914
vn 0.3827 0.0000 -0.9239
vn 0.6088 0.0000 -0.7934
usemtl None
s off
f 27/1/1 2/2/1 1/3/1 4/4/1
f 9/5/2 74/6/2 11/7/2 10/8/2
f 14/9/2 74/6/2 3/10/2 12/11/2
f 8/12/2 74/6/2 9/5/2 7/13/2
f 11/7/2 74/6/2 15/14/2 13/15/2
f 4/16/2 74/6/2 8/12/2 6/17/2
f 3/10/2 74/6/2 4/16/2 1/18/2
f 19/19/2 74/6/2 14/9/2 16/20/2
f 22/21/2 74/6/2 19/19/2 21/22/2
f 26/23/2 74/6/2 22/21/2 25/24/2
f 23/25/2 74/6/2 26/23/2 24/26/2
f 18/27/2 74/6/2 23/25/2 20/28/2
f 17/29/2 15/14/2 74/6/2 18/27/2
f 36/30/3 27/1/3 4/4/3 6/31/3
f 2/2/4 5/32/4 3/33/4 1/3/4
f 36/34/5 44/35/5 41/36/5 27/37/5
f 73/38/6 31/39/6 20/40/6 23/41/6
f 31/39/7 64/42/7 18/43/7 20/40/7
f 15/44/8 65/45/8 33/46/8 13/47/8
f 18/43/9 64/42/9 32/48/9 17/49/9
f 32/48/10 65/50/10 15/51/10 17/49/10
f 33/46/11 66/52/11 11/53/11 13/47/11
f 11/53/12 66/52/12 34/54/12 10/55/12
f 34/54/13 67/56/13 9/57/13 10/55/13
f 67/56/14 35/58/14 7/59/14 9/57/14
f 35/58/15 68/60/15 8/61/15 7/59/15
f 68/60/16 36/30/16 6/31/16 8/61/16
f 28/62/17 12/63/17 3/33/17 5/32/17
f 28/62/18 69/64/18 14/65/18 12/63/18
f 14/65/19 69/64/19 37/66/19 16/67/19
f 37/66/20 70/68/20 19/69/20 16/67/20
f 19/69/21 70/68/21 38/70/21 21/71/21
f 22/72/22 71/73/22 39/74/22 25/75/22
f 39/74/23 72/76/23 26/77/23 25/75/23
f 26/77/24 72/76/24 40/78/24 24/79/24
f 60/80/25 73/81/25 40/82/25 62/83/25
f 27/37/26 41/36/26 29/84/26 2/85/26
f 5/86/27 2/85/27 29/84/27 30/87/27
f 73/38/28 23/41/28 24/79/28 40/78/28
f 49/88/29 51/89/29 58/90/29 48/91/29
f 51/89/29 53/92/29 55/93/29 58/90/29
f 71/73/30 22/72/30 21/71/30 38/70/30
f 68/94/31 45/95/31 44/35/31 36/34/31
f 28/96/32 5/86/32 30/87/32 42/97/32
f 58/90/29 55/93/29 57/98/29 60/99/29
f 58/90/29 63/100/29 61/101/29 59/102/29
f 57/103/33 31/104/33 73/81/33 60/80/33
f 62/83/34 40/82/34 72/105/34 63/106/34
f 63/106/35 72/105/35 39/107/35 61/108/35
f 61/108/36 39/107/36 71/109/36 59/110/36
f 38/111/37 70/112/37 54/113/37 56/114/37
f 59/110/38 71/109/38 38/111/38 56/114/38
f 70/112/39 37/115/39 52/116/39 54/113/39
f 37/115/40 69/117/40 50/118/40 52/116/40
f 69/117/41 28/96/41 42/97/41 50/118/41
f 35/119/42 43/120/42 45/95/42 68/94/42
f 67/121/43 46/122/43 43/120/43 35/119/43
f 30/123/29 58/90/29 50/124/29 42/125/29
f 47/126/44 46/122/44 67/121/44 34/127/44
f 34/127/45 66/128/45 48/129/45 47/126/45
f 66/128/46 33/130/46 49/131/46 48/129/46
f 41/132/29 58/90/29 30/123/29 29/133/29
f 33/130/47 65/134/47 51/135/47 49/131/47
f 45/136/29 58/90/29 41/132/29 44/137/29
f 65/138/48 32/139/48 53/140/48 51/141/48
f 46/142/29 58/90/29 45/136/29 43/143/29
f 32/139/49 64/144/49 55/145/49 53/140/49
f 48/91/29 58/90/29 46/142/29 47/146/29
f 64/144/50 31/104/50 57/103/50 55/145/50
f 58/90/29 54/147/29 52/148/29 50/124/29
f 60/99/29 62/149/29 63/100/29 58/90/29
f 59/102/29 56/150/29 54/147/29 58/90/29
